<svg width="1920" height="803" viewBox="0 0 1920 803" fill="none" xmlns="http://www.w3.org/2000/svg">
<g clip-path="url(#clip0_223_23)">
<path d="M7.5 -174L-12.5 497L-20.4991 632.482C-21.8558 655.46 -3.58702 674.84 19.4313 674.84H125.243C130.802 674.84 136.3 673.681 141.387 671.437L330.351 588.082C335.437 585.838 340.936 584.679 346.495 584.679H645.275C654.541 584.679 663.519 587.896 670.677 593.78L762.135 668.966C766.836 672.831 772.357 675.572 778.277 676.981L1143.58 763.913C1146.62 764.635 1149.73 765 1152.84 765H1347.56H1586.59C1591.81 765 1596.98 763.978 1601.81 761.992L1796.35 681.966C1807.32 677.45 1819.74 678.042 1830.23 683.582L1911.68 726.566C1931.77 737.171 1956.65 728.93 1966.44 708.427L2034.1 566.756C2036.67 561.374 2038 555.484 2038 549.519V413.191C2038 393.899 2022.36 378.259 2003.07 378.259C1984.81 378.259 1969.63 364.193 1968.24 345.985L1929 -168.5L7.5 -174Z" fill="#2A8086"/>
<path opacity="0.3" d="M7.5 -144L-12.5 527L-20.4991 662.482C-21.8558 685.46 -3.58702 704.84 19.4313 704.84H125.243C130.802 704.84 136.3 703.681 141.387 701.437L330.351 618.082C335.437 615.838 340.936 614.679 346.495 614.679H645.275C654.541 614.679 663.519 617.896 670.677 623.78L762.135 698.966C766.836 702.831 772.357 705.572 778.277 706.981L1143.58 793.913C1146.62 794.635 1149.73 795 1152.84 795H1347.56H1586.59C1591.81 795 1596.98 793.978 1601.81 791.992L1795.7 712.229C1807.05 707.563 1819.9 708.359 1830.58 714.388L1920.69 765.25C1941.94 777.243 1968.88 767.584 1977.67 744.824L2035.31 595.534C2037.09 590.938 2038 586.053 2038 581.126V443.191C2038 423.899 2022.36 408.259 2003.07 408.259C1984.81 408.259 1969.63 394.193 1968.24 375.985L1929 -138.5L7.5 -144Z" fill="#2A8086"/>
</g>
<defs>
<clipPath id="clip0_223_23">
<rect width="2061" height="803" fill="white" transform="translate(-23)"/>
</clipPath>
</defs>
</svg>
